<svg xmlns="http://www.w3.org/2000/svg" viewBox="0 0 48 48">
  <rect width="48" height="48" fill="#15100f"/>
  <path d="M24 44 C 12 44, 6 32, 7 24 C 8 18, 13 14, 18 13 C 20.5 12.5, 22 13, 24 13 C 26 13, 27.5 12.5, 30 13 C 35 14, 40 18, 41 24 C 42 32, 36 44, 24 44 Z" fill="#e33d4e"/>
  <ellipse cx="17" cy="22" rx="1.1" ry="1.5" fill="#ffd166"/>
  <ellipse cx="24" cy="21" rx="1.1" ry="1.5" fill="#ffd166"/>
  <ellipse cx="31" cy="22" rx="1.1" ry="1.5" fill="#ffd166"/>
  <ellipse cx="14" cy="28" rx="1.1" ry="1.5" fill="#ffd166"/>
  <ellipse cx="21" cy="28" rx="1.1" ry="1.5" fill="#ffd166"/>
  <ellipse cx="28" cy="28" rx="1.1" ry="1.5" fill="#ffd166"/>
  <ellipse cx="35" cy="28" rx="1.1" ry="1.5" fill="#ffd166"/>
  <ellipse cx="17" cy="34" rx="1.1" ry="1.5" fill="#ffd166"/>
  <ellipse cx="24" cy="34" rx="1.1" ry="1.5" fill="#ffd166"/>
  <ellipse cx="31" cy="34" rx="1.1" ry="1.5" fill="#ffd166"/>
  <path d="M24 13 C 20 8, 14 7, 11 10 C 14 10, 18 12, 20 14 Z" fill="#5fae6a"/>
  <path d="M24 13 C 28 8, 34 7, 37 10 C 34 10, 30 12, 28 14 Z" fill="#5fae6a"/>
  <path d="M24 13 L 24 9" stroke="#3f8a4c" stroke-width="1.5" stroke-linecap="round" fill="none"/>
</svg>
